<?xml version="1.0" encoding="utf-8"?><svg width="111" height="102" viewBox="0 0 111 102" xmlns="http://www.w3.org/2000/svg" xmlns:xlink="http://www.w3.org/1999/xlink"><svg viewBox="-14.95 -14.95 314.9 508.23" width="21.07" height="34" id="arrow" xmlns="http://www.w3.org/2000/svg"><defs><style>.acls-1{fill:#006836}</style></defs><g id="aСлой_2" data-name="Слой 2"><g id="aСлой_1-2" data-name="Слой 1"><path class="acls-1" d="M0 194.17L142.5 0 285 194.17H0zM95 194.17h100v284.17H95z"/></g></g></svg><svg viewBox="-14.95 -14.95 314.9 508.23" width="21.07" height="34" id="arrow2" x="21.07" xmlns="http://www.w3.org/2000/svg"><defs><style>.bcls-1{fill:#c0272d}</style></defs><g id="bСлой_2" data-name="Слой 2"><g id="bСлой_1-2" data-name="Слой 1"><path class="bcls-1" d="M285 284.17L142.5 478.33 0 284.17h285z"/><path class="bcls-1" transform="rotate(180 140 142.085)" d="M90 0h100v284.17H90z"/></g></g></svg><svg viewBox="-1.22 -1.22 41.5 41.5" width="34" height="34" id="buble" x="42.14" xmlns="http://www.w3.org/2000/svg"><defs><style>.ccls-1{fill:#31aadd;stroke:#fff;stroke-miterlimit:10}.ccls-2{fill:#fff}</style></defs><g id="cСлой_2" data-name="Слой 2"><g id="cСлой_1-2" data-name="Слой 1"><circle class="ccls-1" cx="19.53" cy="19.53" r="19.03"/><path class="ccls-2" d="M31 29.66c0 2.26-5 5.72-11.16 5.72S8.69 31.92 8.69 29.66s5 1.09 11.16 1.09S31 27.4 31 29.66z"/></g></g></svg><svg viewBox="-9.09 -9.09 309.11 309.11" width="34" height="34" id="close_icon" y="34" xmlns="http://www.w3.org/2000/svg"><defs><style>.dcls-1{fill:#191919}.dcls-2{fill:none;stroke:#666;stroke-miterlimit:10;stroke-width:6px}</style></defs><g id="dСлой_2" data-name="Слой 2"><g id="dСлой_1-2" data-name="Слой 1"><path class="dcls-1" transform="rotate(45 145.463 145.473)" d="M111.2-19.98h68.54v330.9H111.2z"/><path class="dcls-1" transform="rotate(-45 145.473 145.463)" d="M111.2-19.98h68.54v330.9H111.2z"/><path class="dcls-2" d="M52.71 4.24L145.47 97l92.75-92.76 48.47 48.47-92.76 92.76 92.76 92.75-48.47 48.47-92.75-92.76-92.76 92.76-48.47-48.47L97 145.47 4.24 52.71 52.71 4.24z"/></g></g></svg><svg viewBox="-12.28 -12.28 417.55 402.36" width="34" height="32.76" id="commentsIcon" x="34" y="34" xmlns="http://www.w3.org/2000/svg"><defs><style>.ecls-1{fill:#fff;stroke:#4d4d4c;stroke-miterlimit:10;stroke-width:32px}</style></defs><g id="eСлой_2" data-name="Слой 2"><path class="ecls-1" d="M353.82 299.52H197.39a11.17 11.17 0 0 0-7.7 3.08l-59 56.11a11.17 11.17 0 0 1-18.81-6.87l-4.67-42.37a11.17 11.17 0 0 0-11.11-9.95H39.17A23.24 23.24 0 0 1 16 276.34V39.17A23.24 23.24 0 0 1 39.17 16h314.65A23.24 23.24 0 0 1 377 39.17v237.17a23.24 23.24 0 0 1-23.18 23.18z" id="eСлой_1-2" data-name="Слой 1"/></g></svg><svg viewBox="-10.23 -10.23 347.97 347.55" width="34" height="33.96" id="facebook_icon" x="76.14" xmlns="http://www.w3.org/2000/svg"><defs><style>.fcls-1{fill:#3b579d}</style></defs><g id="fСлой_2" data-name="Слой 2"><path class="fcls-1" d="M162.17 327.08h-119A43.17 43.17 0 0 1 0 283.92V43.17A43.17 43.17 0 0 1 43.17 0h241.16a43.17 43.17 0 0 1 43.17 43.17v240.75a43.17 43.17 0 0 1-43.17 43.17H213V209.75h40.71a7.59 7.59 0 0 0 7.54-6.74l4.25-38a6.9 6.9 0 0 0-6.9-6.9h-46.1v-34.76a21.27 21.27 0 0 1 21.27-21.27h23.58a6.31 6.31 0 0 0 6.31-6.31v-33a6.23 6.23 0 0 0-6.23-6.23H220a58.17 58.17 0 0 0-58.17 58.17v43.33h-30.12a6.71 6.71 0 0 0-6.71 6.71v38.35a6.77 6.77 0 0 0 6.77 6.77H162z" id="fСлой_1-2" data-name="Слой 1"/></g></svg><svg viewBox="-12.12 -12.12 412.25 412.25" width="34" height="34" id="in_icon" x="76.14" y="33.96" xmlns="http://www.w3.org/2000/svg"><defs><style>.gcls-1{fill:#0073b0}.gcls-2{fill:#fff}</style></defs><g id="gСлой_2" data-name="Слой 2"><g id="gСлой_1-2" data-name="Слой 1"><rect class="gcls-1" width="388" height="388" rx="50.83" ry="50.83"/><rect class="gcls-2" x="55.5" y="141.75" width="65" height="204" rx="13.44" ry="13.44"/><path class="gcls-2" d="M159.58 141.75h41.5a11.58 11.58 0 0 1 11.58 11.58v13.17l1.46-1.89a65 65 0 0 1 51.43-25.28h7.7c51.42 0 74.25 33.24 74.25 74.25v121.09a10.67 10.67 0 0 1-10.67 10.67h-44.66a10.67 10.67 0 0 1-10.67-10.67V227.75A33.75 33.75 0 0 0 247.75 194 33.75 33.75 0 0 0 214 227.75v107.33a10.67 10.67 0 0 1-10.67 10.67h-44.66A10.67 10.67 0 0 1 148 335.08V153.33a11.58 11.58 0 0 1 11.58-11.58z"/><circle class="gcls-2" cx="88" cy="84.67" r="42"/></g></g></svg><svg viewBox="-2.23 -2.23 71.95 75.7" width="32.32" height="34" id="ng_icon_1" y="68" xmlns="http://www.w3.org/2000/svg"><defs><style>.hcls-1{fill:#b42e31}.hcls-2{fill:#e23236}.hcls-3{fill:#fff}</style></defs><g id="hСлой_2" data-name="Слой 2"><g id="hСлой_1-2" data-name="Слой 1"><path class="hcls-1" d="M33.75 0L67.5 11.38 61.88 55.5 33.75 71.25V0z"/><path class="hcls-2" d="M33.75 0L0 11.38 5.63 55.5l28.12 15.75V0z"/><path class="hcls-3" d="M12.75 53L33.88 8l20.87 45H47l-4.25-9.75-18-.12L21.63 53h-8.88z"/><path class="hcls-2" d="M27.75 36.75l6-13.62 6.88 13.62H27.75z"/></g></g></svg><svg viewBox="-8.66 -8.66 294.31 242.43" width="34" height="28.01" id="twitter_icon" x="32.32" y="68" xmlns="http://www.w3.org/2000/svg"><defs><style>.icls-1{fill:#1da1f2}</style></defs><g id="iСлой_2" data-name="Слой 2"><path class="icls-1" d="M87.11 225.12c104.53 0 161.7-86.6 161.7-161.7q0-3.69-.16-7.35A115.57 115.57 0 0 0 277 26.65a113.32 113.32 0 0 1-32.64 8.95 57 57 0 0 0 25-31.43A114 114 0 0 1 233.27 18a56.88 56.88 0 0 0-96.84 51.83A161.37 161.37 0 0 1 19.28 10.4a56.88 56.88 0 0 0 17.6 75.87 56.41 56.41 0 0 1-25.74-7.11v.73a56.85 56.85 0 0 0 45.58 55.71 56.74 56.74 0 0 1-25.67 1A56.89 56.89 0 0 0 84.14 176a114 114 0 0 1-70.58 24.33A115.43 115.43 0 0 1 0 199.59a160.87 160.87 0 0 0 87.12 25.53" id="iСлой_1-2" data-name="Слой 1"/></g></svg></svg>