<svg xmlns="http://www.w3.org/2000/svg" viewBox="0 0 392.99 377.8"><defs><style>.cls-1{fill:#fff;stroke:#4d4d4c;stroke-miterlimit:10;stroke-width:32px;}</style></defs><title>commentsIcon</title><g id="Слой_2" data-name="Слой 2"><g id="Слой_1-2" data-name="Слой 1"><path class="cls-1" d="M353.82,299.52H197.39a11.17,11.17,0,0,0-7.7,3.08l-59,56.11a11.17,11.17,0,0,1-18.81-6.87l-4.67-42.37a11.17,11.17,0,0,0-11.11-9.95H39.17A23.24,23.24,0,0,1,16,276.34V39.17A23.24,23.24,0,0,1,39.17,16H353.82A23.24,23.24,0,0,1,377,39.17V276.34A23.24,23.24,0,0,1,353.82,299.52Z"/></g></g></svg>